<?xml version="1.0" encoding="utf-8"?>
<!-- Generator: Adobe Illustrator 19.2.1, SVG Export Plug-In . SVG Version: 6.00 Build 0)  -->
<svg version="1.1" id="Layer_2" xmlns="http://www.w3.org/2000/svg" xmlns:xlink="http://www.w3.org/1999/xlink" x="0px" y="0px"
	 width="100px" height="100px" viewBox="0 0 100 100" style="enable-background:new 0 0 100 100;" xml:space="preserve">
<style type="text/css">
	.st0{fill:#FFFFFF;}
</style>
<title>soundcloud</title>
<g>
	<path class="st0" d="M5.9,44.4c-0.2,0-0.4,0.2-0.4,0.4l-1,8.8l1,8.6c0,0.2,0.2,0.4,0.4,0.4c0.2,0,0.4-0.2,0.4-0.4l1.1-8.6l-1.1-8.8
		C6.3,44.6,6.1,44.5,5.9,44.4z"/>
	<path class="st0" d="M2.3,47.8c-0.2,0-0.4,0.2-0.4,0.4l-0.7,5.4l0.7,5.3c0,0.2,0.2,0.4,0.4,0.4c0.2,0,0.4-0.2,0.4-0.4l0.8-5.3
		l-0.8-5.4C2.6,48,2.5,47.8,2.3,47.8z"/>
	<path class="st0" d="M9.7,42.7c-0.3,0-0.5,0.2-0.5,0.5L8.3,53.6l0.9,10c0,0.3,0.2,0.5,0.5,0.5c0.3,0,0.5-0.2,0.5-0.5l1-10l-1-10.4
		C10.2,42.9,10,42.7,9.7,42.7z"/>
	<path class="st0" d="M13.6,42.4c-0.3,0-0.6,0.3-0.6,0.6l-0.9,10.7L13,63.9c0,0.3,0.3,0.6,0.6,0.6c0.3,0,0.6-0.3,0.6-0.6l1-10.3
		l-1-10.7C14.1,42.6,13.9,42.4,13.6,42.4z"/>
	<polygon class="st0" points="18.1,64 18.1,64 18.1,64 	"/>
	<path class="st0" d="M18.1,43.7c0-0.4-0.3-0.7-0.7-0.7c-0.4,0-0.7,0.3-0.7,0.7L16,53.6L16.8,64c0,0.4,0.3,0.7,0.7,0.7
		c0.4,0,0.7-0.3,0.7-0.7L19,53.6L18.1,43.7z"/>
	<path class="st0" d="M21.4,36.7c-0.4,0-0.7,0.3-0.7,0.7l-0.8,16.1L20.7,64c0,0.4,0.4,0.7,0.8,0.7c0.4,0,0.7-0.3,0.7-0.7l0,0
		L23,53.6l-0.9-16.1C22.1,37.1,21.8,36.8,21.4,36.7z"/>
	<path class="st0" d="M25.3,33c-0.4,0-0.8,0.4-0.8,0.8l-0.7,19.8L24.5,64c0,0.5,0.4,0.8,0.9,0.8c0.4,0,0.8-0.4,0.8-0.8l0,0l0.8-10.4
		l-0.8-19.8C26.1,33.4,25.7,33,25.3,33z"/>
	<path class="st0" d="M29.3,31.2c-0.5,0-0.9,0.4-0.9,0.9l-0.7,21.5l0.7,10.3c0,0.5,0.4,0.9,0.9,0.9c0.5,0,0.9-0.4,0.9-0.9l0,0
		L31,53.6l-0.7-21.5C30.2,31.6,29.8,31.2,29.3,31.2z"/>
	<path class="st0" d="M34.4,31.4c0-0.5-0.4-1-1-1c-0.5,0-1,0.4-1,1l-0.6,22.2l0.6,10.2c0,0.5,0.4,1,1,1c0.5,0,1-0.4,1-1l0.7-10.2
		L34.4,31.4z"/>
	<polygon class="st0" points="34.4,63.8 34.4,63.8 34.4,63.8 	"/>
	<path class="st0" d="M37.4,30.9c-0.6,0-1.1,0.5-1.1,1.1l-0.6,21.6l0.6,10.1c0,0.6,0.5,1.1,1.1,1.1c0.6,0,1.1-0.5,1.1-1.1l0,0
		l0.6-10.1L38.5,32C38.5,31.4,38,30.9,37.4,30.9z"/>
	<path class="st0" d="M41.5,31.6c-0.6,0-1.2,0.5-1.2,1.2l-0.5,20.9l0.5,10c0,0.6,0.5,1.2,1.2,1.2c0.6,0,1.2-0.5,1.2-1.2l0,0l0,0
		l0.6-10l-0.6-20.9C42.7,32.1,42.2,31.6,41.5,31.6z"/>
	<path class="st0" d="M46.3,27.8c-0.4-0.3-0.9-0.3-1.3,0c-0.4,0.2-0.6,0.6-0.6,1v0.2l-0.5,24.6c0,0,0.5,10,0.5,10s0,0,0,0
		c0,0.7,0.6,1.2,1.2,1.2c0.3,0,0.6-0.1,0.9-0.4c0.2-0.2,0.4-0.5,0.4-0.9l0.1-1l0.5-9l-0.5-24.8C46.9,28.4,46.7,28,46.3,27.8z"/>
	<polygon class="st0" points="46.9,63.6 46.9,63.6 46.9,63.6 46.9,63.6 46.9,63.6 46.9,63.6 46.9,63.6 	"/>
	<path class="st0" d="M50.4,25.4c-0.5-0.3-1.1-0.2-1.5,0.1c-0.3,0.3-0.5,0.6-0.5,1v0.1l-0.5,26.9l0.3,5l0.3,4.8
		c0,0.7,0.6,1.3,1.4,1.3c0.7,0,1.2-0.6,1.3-1.3l0,0l0,0l0.6-9.8l0,0l-0.6-27C51,26.1,50.8,25.7,50.4,25.4z"/>
	<path class="st0" d="M86.8,40.8c-1.6,0-3.2,0.3-4.6,0.9C81.2,30.8,72,22.4,61,22.4c-2.6,0-5.2,0.5-7.7,1.4
		c-0.9,0.4-1.1,0.7-1.2,1.4v38.1c0,0.7,0.6,1.3,1.3,1.4c0,0,33.3,0,33.3,0c6.6,0,12-5.4,12-12C98.7,46.2,93.4,40.8,86.8,40.8z"/>
	<path class="st0" d="M10.7,72c-1.4-0.3-1.8-0.5-1.8-1.1c0-0.4,0.3-0.8,1.3-0.8c0.8,0,1.5,0.3,2,0.9l1.3-1.2c-0.8-0.9-2-1.4-3.2-1.4
		c-1.8,0-3.2,1-3.2,2.6c0,1.7,1.1,2.3,2.8,2.6c1.7,0.4,2,0.6,2,1.2c0,0.7-0.5,1-1.5,1c-0.9,0-1.7-0.4-2.3-1L6.8,76
		c0.7,1,2,1.6,3.5,1.6c2.4,0,3.5-1.1,3.5-2.8C13.7,72.8,12.1,72.3,10.7,72z M18.9,68.4c-2.4,0-3.9,1.9-3.9,4.6s1.4,4.6,3.9,4.6
		s3.9-1.9,3.9-4.6S21.3,68.4,18.9,68.4L18.9,68.4z M18.9,75.8c-1.4,0-2-1.2-2-2.8c0-1.6,0.6-2.8,2-2.8s2,1.2,2,2.8
		C20.9,74.6,20.3,75.8,18.9,75.8L18.9,75.8z M29.9,73.5c0,1.4-0.7,2.3-1.8,2.3s-1.8-0.9-1.8-2.3v-5h-1.8v5c0,2.6,1.4,4,3.6,4
		c2.3,0,3.6-1.5,3.6-4.1v-5h-1.8L29.9,73.5L29.9,73.5z M39.4,72.3c0,0.5,0,1.6,0,1.9c-0.1-0.2-0.4-0.7-0.6-1l-3.1-4.7h-1.7v8.9h1.8
		v-3.9c0-0.5,0-1.6,0-1.9c0.1,0.2,0.4,0.7,0.6,1l3.3,4.8h1.6v-8.9h-1.8L39.4,72.3L39.4,72.3z M46.2,68.5h-2.8v8.9H46
		c2.3,0,4.5-1.3,4.5-4.4C50.6,69.7,48.7,68.6,46.2,68.5L46.2,68.5z M46,75.7h-0.9v-5.4h0.9c1.9,0,2.7,0.9,2.7,2.7
		C48.8,74.6,47.9,75.7,46,75.7L46,75.7z M56.1,70.2c0.7,0,1.3,0.3,1.6,1l1.6-0.8c-0.6-1.2-1.6-2-3.3-2c-2.3,0-3.9,1.9-3.9,4.6
		c0,2.8,1.6,4.6,3.9,4.6c1.6,0,2.7-0.7,3.3-2l-1.5-0.9c-0.5,0.8-0.9,1.1-1.7,1.1c-1.3,0-2.1-1.2-2.1-2.8
		C54,71.3,54.7,70.2,56.1,70.2L56.1,70.2z M62.7,68.5h-1.8v8.9h5.3v-1.8h-3.6L62.7,68.5L62.7,68.5z M70.9,68.4
		c-2.4,0-3.9,1.9-3.9,4.6s1.4,4.6,3.9,4.6s3.9-1.9,3.9-4.6S73.3,68.4,70.9,68.4z M70.9,75.8c-1.4,0-2-1.2-2-2.8c0-1.6,0.6-2.8,2-2.8
		s2,1.2,2,2.8C72.9,74.6,72.3,75.8,70.9,75.8z M81.9,73.5c0,1.4-0.7,2.3-1.8,2.3c-1.1,0-1.8-0.9-1.8-2.3v-5h-1.8v5
		c0,2.6,1.4,4,3.6,4c2.3,0,3.6-1.5,3.6-4.1v-5h-1.8L81.9,73.5L81.9,73.5z M88.7,68.5h-2.8v8.9h2.7c2.3,0,4.5-1.3,4.5-4.4
		C93.1,69.7,91.2,68.6,88.7,68.5L88.7,68.5z M88.6,75.7h-0.9v-5.4h0.9c1.9,0,2.7,0.9,2.7,2.7C91.3,74.6,90.4,75.7,88.6,75.7
		L88.6,75.7z"/>
</g>
</svg>
