<?xml version="1.0" encoding="utf-8"?>
<!-- Generator: Adobe Illustrator 19.2.1, SVG Export Plug-In . SVG Version: 6.00 Build 0)  -->
<svg version="1.1" id="Layer_1" xmlns="http://www.w3.org/2000/svg" xmlns:xlink="http://www.w3.org/1999/xlink" x="0px" y="0px"
	 width="100px" height="100px" viewBox="0 0 100 100" style="enable-background:new 0 0 100 100;" xml:space="preserve">
<style type="text/css">
	.st0{fill:#FFFFFF;}
</style>
<title>twitter</title>
<path class="st0" d="M98.1,20.2c-3.6,1.6-7.4,2.6-11.3,3.1c4.1-2.5,7.2-6.3,8.7-10.9c-3.9,2.3-8.1,3.9-12.5,4.8
	C75.5,9.2,63,8.8,55,16.3c-5.1,4.8-7.3,12-5.7,18.9c-15.9-0.8-30.6-8.3-40.7-20.6c-5.2,9-2.6,20.5,6.1,26.3
	c-3.1-0.1-6.2-0.9-8.9-2.5c0,0.1,0,0.2,0,0.2c0,9.4,6.6,17.5,15.8,19.3c-2.9,0.8-5.9,0.9-8.9,0.3c2.6,8,10,13.5,18.4,13.7
	c-7,5.5-15.6,8.5-24.5,8.4c-1.6,0-3.1-0.1-4.7-0.3c9,5.8,19.5,8.9,30.2,8.9c36.3,0,56.1-30.1,56.1-56.1c0-0.9,0-1.7-0.1-2.6
	C92.1,27.6,95.5,24.1,98.1,20.2z"/>
</svg>
